<svg width="1000" height="234" viewBox="0 0 1000 234" fill="none" xmlns="http://www.w3.org/2000/svg">
<path d="M340.258 128.644C326.148 124.588 315.867 119.619 309.412 113.735C303.014 107.794 299.815 100.483 299.815 91.8004C299.815 81.9754 303.728 73.8641 311.554 67.4665C319.437 61.0117 329.661 57.7844 342.228 57.7844C350.796 57.7844 358.422 59.4409 365.105 62.754C371.846 66.067 377.044 70.6368 380.7 76.4632C384.413 82.2896 386.269 88.6587 386.269 95.5704H369.732C369.732 88.0303 367.333 82.1182 362.535 77.8341C357.737 73.4928 350.968 71.3222 342.228 71.3222C334.117 71.3222 327.776 73.1216 323.207 76.7202C318.694 80.2618 316.438 85.2028 316.438 91.5433C316.438 96.6272 318.58 100.94 322.864 104.481C327.205 107.966 334.545 111.165 344.884 114.078C355.281 116.991 363.392 120.218 369.218 123.76C375.102 127.244 379.443 131.329 382.242 136.013C385.098 140.697 386.526 146.209 386.526 152.549C386.526 162.66 382.585 170.771 374.702 176.883C366.819 182.938 356.28 185.966 343.085 185.966C334.517 185.966 326.52 184.338 319.094 181.082C311.668 177.769 305.927 173.256 301.872 167.544C297.873 161.832 295.874 155.348 295.874 148.094H312.411C312.411 155.634 315.181 161.603 320.722 166.002C326.32 170.343 333.774 172.513 343.085 172.513C351.768 172.513 358.422 170.743 363.049 167.201C367.676 163.66 369.989 158.833 369.989 152.721C369.989 146.609 367.847 141.896 363.563 138.583C359.279 135.213 351.51 131.9 340.258 128.644Z" fill="#00847B"/>
<path d="M490.377 73.0359H450.277V184.252H433.912V73.0359H393.898V59.498H490.377V73.0359Z" fill="#00847B"/>
<path d="M552.884 133.785H523.581V184.252H507.044V59.498H548.343C562.395 59.498 573.191 62.6968 580.731 69.0945C588.328 75.4921 592.127 84.8029 592.127 97.027C592.127 104.796 590.013 111.564 585.786 117.334C581.616 123.103 575.79 127.416 568.307 130.272L597.61 183.224V184.252H579.96L552.884 133.785ZM523.581 120.333H548.857C557.025 120.333 563.509 118.219 568.307 113.992C573.162 109.765 575.59 104.11 575.59 97.027C575.59 89.3156 573.277 83.4035 568.65 79.2907C564.08 75.1779 557.454 73.093 548.771 73.0359H523.581V120.333Z" fill="#00847B"/>
<path d="M687.659 151.693H635.393L623.654 184.252H606.689L654.329 59.498H668.724L716.449 184.252H699.569L687.659 151.693ZM640.363 138.155H682.776L661.526 79.8048L640.363 138.155Z" fill="#00847B"/>
<path d="M796.017 73.0359H755.918V184.252H739.552V73.0359H699.538V59.498H796.017V73.0359Z" fill="#00847B"/>
<path d="M897.561 125.902C897.561 138.126 895.505 148.808 891.392 157.947C887.279 167.03 881.453 173.97 873.913 178.768C866.373 183.566 857.576 185.966 847.523 185.966C837.698 185.966 828.987 183.566 821.389 178.768C813.792 173.913 807.88 167.03 803.653 158.119C799.483 149.151 797.341 138.783 797.227 127.016V118.019C797.227 106.024 799.312 95.4276 803.482 86.231C807.652 77.0344 813.535 70.0084 821.132 65.1531C828.787 60.2406 837.526 57.7844 847.351 57.7844C857.348 57.7844 866.144 60.212 873.742 65.0674C881.396 69.8656 887.279 76.863 891.392 86.0596C895.505 95.1991 897.561 105.852 897.561 118.019V125.902ZM881.196 117.848C881.196 103.053 878.226 91.7147 872.285 83.8319C866.344 75.892 858.033 71.922 847.351 71.922C836.955 71.922 828.758 75.892 822.76 83.8319C816.82 91.7147 813.764 102.682 813.592 116.734V125.902C813.592 140.24 816.591 151.521 822.589 159.747C828.644 167.915 836.955 171.999 847.523 171.999C858.147 171.999 866.373 168.144 872.199 160.432C878.026 152.664 881.025 141.553 881.196 127.102V117.848Z" fill="#00847B"/>
<path d="M953.731 128.644C939.622 124.588 929.34 119.619 922.886 113.735C916.488 107.794 913.289 100.483 913.289 91.8004C913.289 81.9754 917.202 73.8641 925.028 67.4665C932.911 61.0117 943.135 57.7844 955.702 57.7844C964.27 57.7844 971.896 59.4409 978.579 62.754C985.32 66.067 990.518 70.6368 994.174 76.4632C997.887 82.2896 999.743 88.6587 999.743 95.5704H983.206C983.206 88.0303 980.807 82.1182 976.009 77.8341C971.211 73.4928 964.442 71.3222 955.702 71.3222C947.591 71.3222 941.25 73.1216 936.681 76.7202C932.168 80.2618 929.912 85.2028 929.912 91.5433C929.912 96.6272 932.054 100.94 936.338 104.481C940.679 107.966 948.019 111.165 958.358 114.078C968.754 116.991 976.866 120.218 982.692 123.76C988.576 127.244 992.917 131.329 995.716 136.013C998.572 140.697 1000 146.209 1000 152.549C1000 162.66 996.059 170.771 988.176 176.883C980.293 182.938 969.754 185.966 956.559 185.966C947.991 185.966 939.994 184.338 932.568 181.082C925.142 177.769 919.401 173.256 915.346 167.544C911.347 161.832 909.348 155.348 909.348 148.094H925.885C925.885 155.634 928.655 161.603 934.196 166.002C939.794 170.343 947.248 172.513 956.559 172.513C965.241 172.513 971.896 170.743 976.523 167.201C981.15 163.66 983.463 158.833 983.463 152.721C983.463 146.609 981.321 141.896 977.037 138.583C972.753 135.213 964.984 131.9 953.731 128.644Z" fill="#00847B"/>
<path fill-rule="evenodd" clip-rule="evenodd" d="M175.845 176.44C175.845 196.807 159.286 213.287 138.898 213.287C118.511 213.287 101.952 196.807 101.952 176.44C101.952 170.605 103.305 165.108 105.71 160.223L90.1267 147.561L89.7645 147.347C84.6734 155.87 81.7527 165.831 81.7527 176.44C81.7527 207.873 107.32 233.386 138.898 233.386C170.476 233.386 196.044 207.873 196.044 176.44C196.044 145.006 170.476 119.493 138.898 119.493H0L36.7746 148.525V139.592H138.898C159.286 139.592 175.845 156.072 175.845 176.44Z" fill="#00847B"/>
<path fill-rule="evenodd" clip-rule="evenodd" d="M98.6167 56.9461C98.6167 36.5786 115.175 20.0986 135.563 20.0986C155.951 20.0986 172.51 36.5786 172.51 56.9461C172.51 62.7806 171.157 68.2776 168.751 73.1626L184.335 85.8244L184.697 86.0386C189.788 77.5155 192.709 67.555 192.709 56.9461C192.709 25.5127 167.141 -6.78301e-05 135.563 -6.78301e-05C103.985 -6.78301e-05 78.4176 25.5127 78.4176 56.9461C78.4176 88.3794 103.985 113.892 135.563 113.892H274.462L237.687 84.8608V93.7935H135.563C115.175 93.7935 98.6167 77.3135 98.6167 56.9461Z" fill="#00847B"/>
</svg>
